<svg width="419" height="418" viewBox="0 0 419 418" fill="none" xmlns="http://www.w3.org/2000/svg">
<g clip-path="url(#clip0_91_8799)">
<mask id="mask0_91_8799" style="mask-type:luminance" maskUnits="userSpaceOnUse" x="0" y="0" width="419" height="418">
<path d="M418.5 0H0.5V418H418.5V0Z" fill="white"/>
</mask>
<g mask="url(#mask0_91_8799)">
<path fill-rule="evenodd" clip-rule="evenodd" d="M31.8501 143.697V310.886C31.8501 333.972 50.5646 352.686 73.6501 352.686H345.35C368.435 352.686 387.15 333.972 387.15 310.886V143.697H31.8501Z" fill="#A0C4FB"/>
<path d="M31.8501 107.115C31.8501 84.0289 50.5646 65.3145 73.6501 65.3145H345.35C368.435 65.3145 387.149 84.0285 387.15 107.114V128.015H31.8501V107.115Z" fill="#4189F6"/>
<path fill-rule="evenodd" clip-rule="evenodd" d="M145.969 285.95C141.918 290.061 135.35 290.061 131.3 285.95L99.5027 253.682C94.4392 248.544 94.4392 240.212 99.5027 235.074L131.095 203.013C135.145 198.902 141.713 198.902 145.763 203.013C149.815 207.124 149.815 213.789 145.763 217.9L119.673 244.377L145.969 271.063C150.02 275.174 150.02 281.839 145.969 285.95Z" fill="#0D51B7"/>
<path fill-rule="evenodd" clip-rule="evenodd" d="M273.035 285.95C277.085 290.061 283.653 290.061 287.705 285.95L319.501 253.682C324.565 248.544 324.565 240.212 319.501 235.074L287.909 203.013C283.859 198.902 277.291 198.902 273.24 203.013C269.189 207.124 269.189 213.789 273.24 217.9L299.33 244.377L273.035 271.063C268.984 275.174 268.984 281.839 273.035 285.95Z" fill="#0D51B7"/>
<path fill-rule="evenodd" clip-rule="evenodd" d="M184.413 291.449C179.433 288.531 177.71 282.099 180.564 277.083L223.735 201.2C226.589 196.183 232.938 194.481 237.919 197.399C242.898 200.317 244.621 206.749 241.767 211.765L198.596 287.649C195.742 292.665 189.392 294.367 184.413 291.449Z" fill="#0D51B7"/>
<path d="M73.6761 96.6648C73.6761 102.436 68.9976 107.115 63.2261 107.115C57.4548 107.115 52.7761 102.436 52.7761 96.6648C52.7761 90.8935 57.4548 86.2148 63.2261 86.2148C68.9976 86.2148 73.6761 90.8935 73.6761 96.6648Z" fill="white"/>
<path d="M105.026 96.6648C105.026 102.436 100.348 107.115 94.5762 107.115C88.8049 107.115 84.1262 102.436 84.1262 96.6648C84.1262 90.8935 88.8049 86.2148 94.5762 86.2148C100.348 86.2148 105.026 90.8935 105.026 96.6648Z" fill="white"/>
<path d="M136.376 96.6648C136.376 102.436 131.698 107.115 125.926 107.115C120.155 107.115 115.476 102.436 115.476 96.6648C115.476 90.8935 120.155 86.2148 125.926 86.2148C131.698 86.2148 136.376 90.8935 136.376 96.6648Z" fill="white"/>
</g>
</g>
<defs>
<clipPath id="clip0_91_8799">
<rect width="418" height="418" fill="white" transform="translate(0.5)"/>
</clipPath>
</defs>
</svg>
